HIERARCHY
ROOT joint_Root
{
	OFFSET 0.0 0.0 0.0
	CHANNELS 6 Xposition Yposition Zposition Zrotation Xrotation Yrotation 
	JOINT Hips
	{
		OFFSET 4.5925 91.4895 -427.239
		CHANNELS 6 Xposition Yposition Zposition Zrotation Xrotation Yrotation 
		JOINT Spine
		{
			OFFSET 15.7357 0.0 0.0
			CHANNELS 6 Xposition Yposition Zposition Zrotation Xrotation Yrotation 
			JOINT Chest
			{
				OFFSET 8.98455 -0.406207 0.0
				CHANNELS 6 Xposition Yposition Zposition Zrotation Xrotation Yrotation 
				JOINT Neck
				{
					OFFSET 16.3773 0.0 0.0
					CHANNELS 6 Xposition Yposition Zposition Zrotation Xrotation Yrotation 
					JOINT Head
					{
						OFFSET 6.45672 0.0 0.0
						CHANNELS 6 Xposition Yposition Zposition Zrotation Xrotation Yrotation 
						End Site
						{
							OFFSET 0.0 0.0 0.0
						}
					}
				}
				JOINT Shoulder_L
				{
					OFFSET 12.9942 -0.242716 4.98039
					CHANNELS 6 Xposition Yposition Zposition Zrotation Xrotation Yrotation 
					JOINT UpperArm_L
					{
						OFFSET 5.34809 0.0 0.0
						CHANNELS 6 Xposition Yposition Zposition Zrotation Xrotation Yrotation 
						JOINT LowerArm_L
						{
							OFFSET 24.3286 1.87007e-05 0.0
							CHANNELS 6 Xposition Yposition Zposition Zrotation Xrotation Yrotation 
							JOINT Hand_L
							{
								OFFSET 22.2916 0.0 0.0
								CHANNELS 6 Xposition Yposition Zposition Zrotation Xrotation Yrotation 
								End Site
								{
									OFFSET 0.0 0.0 0.0
								}
							}
						}
					}
				}
				JOINT Shoulder_R
				{
					OFFSET 12.9945 -0.242716 -4.98039
					CHANNELS 6 Xposition Yposition Zposition Zrotation Xrotation Yrotation 
					JOINT UpperArm_R
					{
						OFFSET -5.34813 0.0 0.0
						CHANNELS 6 Xposition Yposition Zposition Zrotation Xrotation Yrotation 
						JOINT LowerArm_R
						{
							OFFSET -24.3289 0.000322201 0.0
							CHANNELS 6 Xposition Yposition Zposition Zrotation Xrotation Yrotation 
							JOINT Hand_R
							{
								OFFSET -22.2915 -0.000108084 0.0
								CHANNELS 6 Xposition Yposition Zposition Zrotation Xrotation Yrotation 
								End Site
								{
									OFFSET 0.0 0.0 0.0
								}
							}
						}
					}
				}
			}
		}
		JOINT UpperLeg_L
		{
			OFFSET -2.19248 -6.46944 0.0
			CHANNELS 6 Xposition Yposition Zposition Zrotation Xrotation Yrotation 
			JOINT LowerLeg_L
			{
				OFFSET 39.0811 0.0 -1.23785e-05
				CHANNELS 6 Xposition Yposition Zposition Zrotation Xrotation Yrotation 
				JOINT Foot_L
				{
					OFFSET 40.9854 0.0 -1.26872e-05
					CHANNELS 6 Xposition Yposition Zposition Zrotation Xrotation Yrotation 
					JOINT Toes_L
					{
						OFFSET 11.7543 0.0 0.0
						CHANNELS 6 Xposition Yposition Zposition Zrotation Xrotation Yrotation 
						End Site
						{
							OFFSET 0.0 0.0 0.0
						}
					}
				}
			}
		}
		JOINT UpperLeg_R
		{
			OFFSET -2.19251 6.46944 0.0
			CHANNELS 6 Xposition Yposition Zposition Zrotation Xrotation Yrotation 
			JOINT LowerLeg_R
			{
				OFFSET -39.0811 -0.00228153 -0.0401928
				CHANNELS 6 Xposition Yposition Zposition Zrotation Xrotation Yrotation 
				JOINT Foot_R
				{
					OFFSET -40.9854 0.0 0.0
					CHANNELS 6 Xposition Yposition Zposition Zrotation Xrotation Yrotation 
					JOINT Toes_R
					{
						OFFSET -11.7543 0.0 0.0
						CHANNELS 6 Xposition Yposition Zposition Zrotation Xrotation Yrotation 
						End Site
						{
							OFFSET 0.0 0.0 0.0
						}
					}
				}
			}
		}
	}
}
MOTION
Frames:	4
Frame Time:	0.0333333
0.000000 0.000000 0.000000 0.000000 0.000000 -0.000000 -1.648860 90.352700 -1.921800 88.382400 -1.285420 14.760700 15.735700 0.000005 -0.000001 89.373500 76.871600 -89.378400 8.984550 -0.406207 -0.000000 18.489300 -0.282002 0.036101 16.377300 -0.000001 -0.000001 7.483820 -4.012330 1.287770 6.456720 -0.000001 -0.000000 -10.673600 -3.436060 0.253657 12.994200 -0.242716 4.980390 -91.272600 6.730100 -79.266900 5.348090 -0.000007 -0.000001 -63.126400 25.120000 -20.028800 24.328600 0.000019 0.000005 11.508200 26.642100 -24.420400 22.291600 -0.000001 0.000005 11.294000 5.191410 2.933790 12.994500 -0.242716 -4.980390 89.070200 10.494700 -84.908000 -5.348130 -0.000001 -0.000004 -59.403000 32.166000 -19.877400 -24.328900 0.000322 -0.000009 3.644350 9.039860 -22.071800 -22.291500 -0.000108 -0.000004 16.944400 5.375150 -2.146320 -2.192480 -6.469440 -0.000000 -172.293000 -11.486200 1.120530 39.081100 -0.000007 -0.000012 -0.169354 0.248187 34.308600 40.985400 -0.000006 -0.000013 0.474464 6.783800 -70.368800 11.754300 -0.000000 0.000003 -0.000197 -0.001830 -16.646600 -2.192510 6.469440 -0.000001 173.696000 21.297800 -175.928000 -39.081100 -0.002282 -0.040193 -0.247242 0.396325 32.299600 -40.985400 0.000008 0.000006 4.939910 15.785000 -71.178400 -11.754300 -0.000006 -0.000006 -0.002330 -0.032776 -17.905900
0.000000 0.000000 0.000000 0.000000 0.000000 -0.000000 -1.644450 90.353500 -1.919300 88.386600 -1.260690 14.811300 15.735700 0.000005 -0.000001 89.393800 76.866700 -89.402100 8.984550 -0.406207 -0.000000 18.499300 -0.273283 0.028039 16.377300 -0.000001 -0.000001 7.537240 -3.992180 1.334740 6.456720 -0.000001 -0.000000 -10.754900 -3.449930 0.273632 12.994200 -0.242716 4.980390 -91.275000 6.699420 -79.199300 5.348090 -0.000007 -0.000001 -63.518600 24.228500 -19.840700 24.328600 0.000019 0.000005 12.263100 25.490400 -26.797200 22.291600 -0.000001 0.000005 11.254000 5.188870 2.997690 12.994500 -0.242716 -4.980390 89.055000 10.458100 -84.807400 -5.348130 -0.000001 -0.000004 -59.545400 31.430700 -19.672600 -24.328900 0.000322 -0.000009 3.855090 8.887910 -23.570300 -22.291500 -0.000108 -0.000004 17.362800 5.382390 -2.373300 -2.192480 -6.469440 -0.000000 -172.281000 -11.494300 1.172780 39.081100 -0.000007 -0.000012 -0.171018 0.250695 34.301200 40.985400 -0.000006 -0.000013 0.489845 6.829230 -70.364100 11.754300 -0.000000 0.000003 -0.000196 -0.001820 -16.646300 -2.192510 6.469440 -0.000001 173.656000 21.308200 -175.867000 -39.081100 -0.002282 -0.040193 -0.250751 0.401962 32.294100 -40.985400 0.000008 0.000006 4.931450 15.789500 -71.174500 -11.754300 -0.000006 -0.000006 -0.002382 -0.033398 -17.931200
0.000000 0.000000 0.000000 0.000000 0.000000 -0.000000 -1.637490 90.354000 -1.951190 88.388700 -1.191750 14.832200 15.735700 0.000005 -0.000001 89.328200 76.879700 -89.340900 8.984550 -0.406207 -0.000000 18.472900 -0.302897 0.023795 16.377300 -0.000001 -0.000001 7.646730 -3.984420 1.372720 6.456720 -0.000001 -0.000000 -10.836700 -3.450960 0.303676 12.994200 -0.242716 4.980390 -91.275400 6.660120 -79.133300 5.348090 -0.000007 -0.000001 -63.581700 23.742700 -19.901100 24.328600 0.000019 0.000005 13.082000 24.388500 -29.368900 22.291600 -0.000001 0.000005 11.649400 5.195560 2.830480 12.994500 -0.242716 -4.980390 89.040600 10.414800 -84.707300 -5.348130 -0.000001 -0.000004 -59.589600 30.689600 -19.501300 -24.328900 0.000322 -0.000009 4.153720 8.748800 -25.528300 -22.291500 -0.000108 -0.000004 17.814300 5.388730 -2.574670 -2.192480 -6.469440 -0.000000 -172.308000 -11.441900 1.154870 39.081100 -0.000007 -0.000012 -0.170231 0.249468 34.309000 40.985400 -0.000006 -0.000013 0.500834 6.830970 -70.343200 11.754300 -0.000000 0.000003 -0.000217 -0.001981 -16.652100 -2.192510 6.469440 -0.000001 173.622000 21.376400 -175.858000 -39.081100 -0.002282 -0.040193 -0.249733 0.400252 32.300400 -40.985400 0.000008 0.000006 4.932320 15.809800 -71.160100 -11.754300 -0.000006 -0.000006 -0.002209 -0.031306 -17.846100
0.000000 0.000000 0.000000 0.000000 0.000000 -0.000000 -1.626790 90.353100 -1.997790 88.399100 -1.176570 14.834100 15.735700 0.000005 -0.000001 89.321500 76.893400 -89.335800 8.984550 -0.406207 -0.000000 18.445500 -0.305789 0.020939 16.377300 -0.000001 -0.000001 7.727690 -3.970710 1.416130 6.456720 -0.000001 -0.000000 -10.873900 -3.449960 0.273208 12.994200 -0.242716 4.980390 -91.268200 6.623180 -79.135400 5.348090 -0.000007 -0.000001 -63.585000 23.183200 -20.070500 24.328600 0.000019 0.000005 14.258600 23.704900 -32.297500 22.291600 -0.000001 0.000005 12.417800 5.205540 2.579610 12.994500 -0.242716 -4.980390 89.031200 10.342200 -84.619000 -5.348130 -0.000001 -0.000004 -59.451100 30.009700 -19.421600 -24.328900 0.000322 -0.000009 4.688490 8.875960 -27.996500 -22.291500 -0.000108 -0.000004 18.394800 5.390560 -2.632430 -2.192480 -6.469440 -0.000000 -172.336000 -11.414900 1.104590 39.081100 -0.000007 -0.000012 -0.172127 0.252109 34.323600 40.985400 -0.000006 -0.000013 0.504830 6.822970 -70.310600 11.754300 -0.000000 0.000003 -0.000208 -0.001911 -16.649500 -2.192510 6.469440 -0.000001 173.623000 21.384200 -175.915000 -39.081100 -0.002282 -0.040193 -0.248150 0.397266 32.331900 -40.985400 0.000008 0.000006 4.932110 15.795600 -71.134500 -11.754300 -0.000006 -0.000006 -0.002222 -0.031464 -17.852500
